PathFileType	4	(X/Y/Z)	C:/Users/opensim2020/Desktop/walking_exp_matlab/subject01_walking07_straight_01.trc																																																																																																																															
DataRate	CameraRate	NumFrames	NumMarkers	Units	OrigDataRate	OrigDataStartFrame	OrigNumFrames																																																																																																																											
100	100	8	43	mm	100	866	282																																																																																																																											
Frame#	Time	LFHD			RFHD			LBHD			RBHD			C7			T10			CLAV			STRN			RBAK			LSHO			LUPA			LELB			LFRM			LWRA			LWRB			LFIN			RSHO			RUPA			RELB			RFRM			RWRA			RWRB			RFIN			LASI			RASI			LPSI			RPSI			LTHI			LKNE			LTIB			LANK			LHEE			LTOE			RTHI			RKNE			RTIB			RANK			RHEE			RTOE			*39			*40			*41			*42		
		X1	Y1	Z1	X2	Y2	Z2	X3	Y3	Z3	X4	Y4	Z4	X5	Y5	Z5	X6	Y6	Z6	X7	Y7	Z7	X8	Y8	Z8	X9	Y9	Z9	X10	Y10	Z10	X11	Y11	Z11	X12	Y12	Z12	X13	Y13	Z13	X14	Y14	Z14	X15	Y15	Z15	X16	Y16	Z16	X17	Y17	Z17	X18	Y18	Z18	X19	Y19	Z19	X20	Y20	Z20	X21	Y21	Z21	X22	Y22	Z22	X23	Y23	Z23	X24	Y24	Z24	X25	Y25	Z25	X26	Y26	Z26	X27	Y27	Z27	X28	Y28	Z28	X29	Y29	Z29	X30	Y30	Z30	X31	Y31	Z31	X32	Y32	Z32	X33	Y33	Z33	X34	Y34	Z34	X35	Y35	Z35	X36	Y36	Z36	X37	Y37	Z37	X38	Y38	Z38	X39	Y39	Z39	X40	Y40	Z40	X41	Y41	Z41	X42	Y42	Z42	X43	Y43	Z43
																																																																																																																																		
212	2.11	364.59567	1656.63525	1385.14026	407.84567	1664.84424	1491.02161	251.35989	1621.01709	1426.44434	293.98074	1628.94128	1538.59753	212.88242	1425.24744	1468.22217	177.51239	1131.55591	1482.05823	354.30106	1355.09937	1454.5686	396.57108	1200.69995	1450.55042	163.90248	1232.97607	1554.12646	280.59451	1383.05713	1299.42383	221.31906	1199.29065	1227.43018	183.94437	1055.69934	1239.98413	191.2542	942.7132	1216.6178	239.13043	809.91901	1232.42383	182.93916	820.41937	1213.15759	207.26289	738.06592	1207.23291	307.6637	1388.91321	1611.47241	269.85376	1190.67542	1723.46228	282.49969	1063.89294	1729.93884	346.13071	957.52655	1752.72705	456.28345	873.69647	1721.77979	418.49411	859.09668	1763.36218	478.9277	799.6814	1756.3396	347.49442	926.31	1365.31323	357.7251	925.4718	1583.70825	163.66367	935.78217	1421.40698	171.13136	945.79071	1565.14478	380.06909	605.78864	1289.70386	417.8226	479.90106	1312.49597	432.8251	296.83585	1298.71143	499.12997	81.52621	1341.17993	471.60529	38.79496	1398.46008	646.40765	89.13373	1327.97607	247.85489	601.44873	1637.91833	219.59241	442.58862	1612.38672	121.10209	294.70428	1621.11963	35.52638	105.50883	1577.30005	-27.27669	84.45894	1533.27332	159.13264	34.72872	1560.51062	392.20401	1698.65051	1470.37939	1973.19885	1023.41095	-3102.03613	2012.61401	1022.09088	-3140.70728	NaN	NaN	NaN
213	2.12	374.64111	1655.64478	1382.39185	417.92166	1663.88037	1488.29565	261.27881	1620.25537	1423.73328	303.97501	1628.16357	1535.84521	222.6561	1424.36572	1465.64587	187.58174	1130.63354	1479.91748	364.0556	1354.24023	1452.02539	406.47229	1199.85181	1448.26367	173.8177	1232.04163	1551.72913	290.37537	1381.89575	1296.90234	230.92978	1198.00781	1225.13733	193.21033	1054.68018	1238.03894	200.04417	941.56641	1214.8042	247.24658	808.46497	1230.66748	191.07903	819.3476	1211.58105	214.80472	736.61786	1205.875	317.26877	1388.28223	1608.91162	279.65121	1190.16125	1721.0625	292.43741	1063.44226	1727.85657	356.3605	957.22833	1750.69226	466.73248	873.66907	1719.76331	428.96121	859.02435	1761.36304	489.65555	799.89417	1754.45959	358.00977	925.28723	1363.79285	367.98404	924.64929	1582.16711	173.90384	934.98639	1419.34216	181.4021	944.98474	1563.07251	391.9075	605.63202	1289.44019	428.00342	479.00601	1312.16125	442.26782	295.30725	1298.91418	508.49036	80.09635	1341.81567	480.88934	37.66594	1399.30457	656.10217	87.44934	1329.65356	257.28033	601.05682	1636.86987	228.15608	442.03772	1611.81873	126.96542	295.90515	1621.02539	37.55606	108.36938	1578.1842	-25.59092	88.45776	1534.1897	159.38583	34.63018	1560.52087	402.12262	1697.57654	1467.43921	1973.02148	1023.52435	-3102.05273	2012.51746	1021.98456	-3140.68018	NaN	NaN	NaN
214	2.13	384.60248	1654.64148	1379.58008	427.86703	1662.9137	1485.46375	271.24503	1619.42712	1420.8634	313.88095	1627.37402	1533.073	232.41069	1423.42505	1462.95105	197.59862	1129.8429	1477.79932	373.94757	1353.42358	1449.47119	416.51605	1199.07275	1445.95227	183.7637	1231.06042	1549.26868	300.12967	1380.67883	1294.2157	240.60614	1196.76123	1222.79724	202.72725	1053.53735	1235.90894	209.20369	940.36383	1212.84375	255.72345	807.17413	1229.42712	199.69666	818.16034	1209.83032	223.17477	735.50488	1204.53503	326.96082	1387.61475	1606.2699	289.25977	1189.63196	1718.47766	302.2825	1063.00464	1725.69238	366.35913	956.9032	1748.58557	476.90036	873.53735	1717.67163	439.14755	858.81311	1759.27686	499.99603	799.85529	1752.48071	368.64734	924.41992	1361.98047	378.36197	923.79199	1580.41345	184.26656	934.21643	1417.34875	191.81683	944.31757	1561.11255	404.35138	605.44055	1289.56177	438.76447	478.26181	1312.12891	451.11911	293.74026	1299.34753	515.50452	78.24978	1343.05432	487.2157	36.3589	1400.31763	663.06079	84.56676	1331.44788	266.96786	600.49701	1635.58374	237.26268	441.34302	1611.15503	133.18813	297.3338	1621.10474	39.78281	111.15425	1578.68591	-23.84038	92.53374	1534.97156	159.47214	34.36837	1560.27124	412.14886	1696.59973	1464.58154	1973.23657	1023.48779	-3101.95215	2012.48389	1021.9743	-3140.57739	NaN	NaN	NaN
215	2.14	394.4736	1653.6593	1376.71729	437.60098	1661.84058	1482.5022	281.13202	1618.55444	1417.99353	323.686	1626.5365	1530.18396	242.23305	1422.36987	1460.16785	207.94904	1128.79749	1475.54504	383.79816	1352.55066	1446.76196	426.69736	1198.27844	1443.55359	193.86057	1230.03064	1546.7594	309.95892	1379.45935	1291.5061	250.44836	1195.45618	1220.34131	212.30496	1052.25073	1233.58008	218.61392	939.15179	1210.81091	264.75339	805.79596	1227.85559	208.83954	816.89972	1207.98914	232.03845	734.00232	1203.05627	336.66235	1386.8822	1603.49963	298.70663	1189.15173	1715.85913	311.9491	1062.58875	1723.36621	376.17484	956.57526	1746.42358	486.88156	873.4574	1715.73828	449.0209	858.55939	1757.24292	509.96387	799.69348	1750.48108	379.46393	923.6275	1360.06995	388.97589	922.91962	1578.57031	194.89133	933.32849	1415.39502	202.42831	943.39624	1559.04187	417.44412	605.33862	1289.99512	449.97903	477.58929	1312.46204	459.38693	291.84641	1299.83521	520.62091	75.76993	1344.07471	490.7562	36.04838	1400.77551	667.99738	80.45074	1333.23657	277.15329	599.75403	1634.19312	246.93654	440.46295	1610.52722	139.8082	298.4169	1620.87903	42.41735	114.24276	1579.29077	-21.83353	97.09519	1535.97742	159.86435	34.41529	1560.49084	422.04382	1695.64978	1461.67603	1973.11536	1023.79041	-3101.92163	2012.48914	1022.01379	-3140.6228	NaN	NaN	NaN
216	2.15	404.34106	1652.67603	1373.89453	447.36282	1660.8634	1479.7052	290.87613	1617.63342	1415.03967	333.37622	1625.59717	1527.26306	252.01627	1421.25452	1457.25378	218.75555	1127.41724	1473.13025	393.78586	1351.6936	1443.9939	437.01056	1197.49805	1441.01917	203.9902	1228.98669	1544.16626	319.75778	1378.21558	1288.65454	260.28854	1194.03174	1217.8158	222.18188	1050.99121	1231.17126	228.45427	937.76508	1208.6405	274.28793	804.43115	1226.08643	218.44603	815.58923	1206.08459	241.5137	732.50562	1201.54358	346.39029	1386.13184	1600.61475	308.05829	1188.6272	1713.05688	321.48611	1062.15161	1720.99316	385.7081	956.15594	1744.20544	496.50623	873.02179	1713.55603	458.66492	858.21173	1755.20264	519.6662	799.38135	1748.45654	390.5163	922.80609	1357.97766	399.7471	922.01111	1576.62244	205.57626	932.37482	1413.40137	213.25438	942.4953	1557.0144	430.72638	605.10718	1290.87634	461.49521	476.92667	1313.05676	467.26105	289.71585	1300.3855	523.53168	72.85181	1345.53503	492.47983	34.80939	1401.52148	671.27155	74.5743	1335.15808	287.88495	598.89594	1632.69373	257.14938	439.28207	1609.73059	146.93919	299.64951	1620.69104	45.26944	117.39439	1579.84741	-19.14643	101.96297	1536.54138	160.28189	34.4028	1560.65967	431.86981	1694.67505	1458.8125	1973.12085	1023.38556	-3102.0166	2012.43018	1021.9649	-3140.69263	NaN	NaN	NaN
217	2.16	414.08368	1651.77234	1370.94714	457.07791	1659.93591	1476.93982	300.59763	1616.62878	1411.99768	342.99835	1624.60168	1524.3103	261.72144	1420.08472	1454.1261	229.37082	1126.13367	1470.60339	403.73578	1350.7439	1441.05408	447.42908	1196.80615	1438.42688	212.6017	1228.2312	1541.65186	329.72263	1377.00171	1285.66248	270.26508	1192.69092	1215.16602	232.33049	1049.56763	1228.53003	238.60776	936.41956	1206.40674	284.52798	803.15057	1223.91003	228.51384	814.20923	1204.11426	251.46719	731.07349	1199.59253	356.23499	1385.55188	1597.73572	317.45297	1188.13232	1710.20374	330.81021	1061.64429	1718.53467	395.12448	955.67804	1741.94043	505.91992	872.51215	1711.46545	468.04739	857.82092	1753.25635	529.10699	798.85406	1746.39905	401.52512	922.04193	1355.91333	410.67957	921.1217	1574.59021	216.33409	931.41217	1411.2865	224.20442	941.86078	1555.23169	443.57092	604.60883	1292.47754	472.94168	476.07596	1313.23645	474.63098	287.60846	1301.54016	525.83459	71.65952	1347.21814	493.71091	35.77222	1402.88123	674.30695	66.11137	1336.35095	299.24036	597.80072	1631.11389	268.35574	438.10242	1609.06665	154.33394	300.37991	1619.71362	48.46715	121.032	1580.46838	-16.21679	107.11583	1536.99402	160.74928	34.38667	1560.83838	441.56671	1693.70483	1455.98682	1973.14307	1023.32751	-3101.90747	2012.50623	1021.96686	-3140.68555	NaN	NaN	NaN
218	2.17	423.96304	1651.3075	1368.02002	466.72229	1659.35144	1474.19312	310.65079	1615.79199	1408.97278	352.55295	1623.83142	1521.28271	271.21118	1419.32776	1450.95386	239.97658	1125.03247	1468.01917	413.72763	1349.99902	1438.0426	457.80533	1196.40857	1435.74023	224.31007	1226.86279	1538.33423	339.63843	1375.91833	1282.4447	280.41058	1191.28076	1212.42676	242.63554	1048.23938	1225.95789	249.04254	934.93964	1204.04761	294.79462	801.80646	1222.39734	238.97037	812.6908	1202.02722	262.17398	729.70349	1198.10547	365.96411	1384.82813	1594.703	326.70834	1187.66101	1707.36182	340.01889	1061.05701	1715.93628	404.27161	955.08826	1739.66479	515.07434	871.8866	1709.37024	477.3175	857.19812	1751.07166	538.20056	798.1228	1744.28052	412.43939	921.43994	1353.98669	421.75092	920.26929	1572.48413	226.9978	930.45538	1408.95825	235.15147	940.69519	1552.92896	455.64496	603.70563	1294.39294	484.04178	475.09201	1312.59485	482.16412	286.35208	1303.20691	529.25885	71.80838	1347.20667	495.69003	36.95801	1402.58325	677.79858	58.98573	1336.7959	311.13107	596.50488	1629.3822	280.03506	436.64624	1607.96655	162.79628	302.49759	1619.72327	52.23943	124.95023	1580.95398	-12.45169	113.27051	1537.60083	161.35016	34.53325	1561.15369	451.18082	1692.96875	1453.1825	1973.03809	1023.44305	-3101.99463	2012.45276	1021.96198	-3140.68066	NaN	NaN	NaN
219	2.18	433.98813	1651.3822	1365.14001	476.44604	1659.26282	1471.37537	320.40128	1615.85693	1405.71301	362.20737	1623.59753	1518.20764	280.85544	1419.00085	1447.54138	250.49576	1124.56348	1465.62598	423.54355	1349.71777	1434.99072	468.1564	1196.42761	1432.98401	234.22559	1226.17688	1534.85425	349.57944	1375.03992	1279.2041	290.7287	1189.92261	1209.56799	253.08434	1046.82141	1223.27563	259.83707	933.45044	1201.62964	305.85529	800.55994	1220.32996	249.97232	811.23853	1199.91553	273.33109	728.47498	1195.87085	375.48489	1384.21472	1591.53101	336.04559	1187.20068	1704.43579	349.05927	1060.52832	1713.24353	413.31046	954.49622	1737.35767	523.88904	870.99988	1707.11511	486.27472	856.55884	1748.96448	546.96967	797.37048	1742.12061	423.35483	920.94403	1352.00452	432.74185	919.65057	1570.33398	237.80612	929.8139	1406.65149	245.84366	940.07886	1551.12976	467.25012	603.72858	1294.99438	495.26501	474.76825	1311.32813	490.84204	286.92865	1304.03149	534.18848	71.69627	1346.25745	497.95425	38.6585	1400.97925	681.65399	53.8435	1337.71692	323.84265	595.25262	1627.57971	292.84583	435.42798	1607.01575	172.62976	305.05508	1619.47925	56.87342	129.74916	1581.4762	-7.61508	120.26176	1537.72351	161.92967	34.64053	1561.3822	460.77661	1692.76685	1450.47717	1973.09229	1023.34088	-3101.99438	2012.59399	1022.13953	-3140.64575	NaN	NaN	NaN
